<?xml version="1.0" standalone="no"?>
<!DOCTYPE svg PUBLIC "-//W3C//DTD SVG 20010904//EN"
 "http://www.w3.org/TR/2001/REC-SVG-20010904/DTD/svg10.dtd">
<svg version="1.0" xmlns="http://www.w3.org/2000/svg"
 width="576.000000pt" height="576.000000pt" viewBox="0 0 576.000000 576.000000"
 preserveAspectRatio="xMidYMid meet">

<g transform="translate(0.000000,576.000000) scale(0.100000,-0.100000)"
fill="#003366" stroke="none">
<path d="M293 5710 c-107 -31 -183 -97 -229 -196 l-24 -53 0 -2568 c0 -1726 3
-2580 10 -2605 24 -86 96 -165 195 -213 39 -20 77 -20 2600 -23 2526 -2 2652
-1 2670 29 6 8 -64 102 -139 189 -17 20 -42 50 -56 67 -103 127 -373 404 -515
528 -44 39 -82 72 -85 75 -33 33 -264 197 -335 238 -155 89 -315 153 -460 182
-122 25 -307 20 -404 -11 -157 -51 -279 -117 -385 -210 -26 -23 -48 -40 -50
-38 -1 2 -22 59 -45 127 -23 67 -59 152 -79 187 -114 200 -279 324 -512 381
-345 86 -883 -30 -1465 -316 -99 -49 -216 -108 -260 -133 -44 -24 -102 -57
-130 -72 -27 -15 -56 -32 -63 -38 -10 -8 -12 -5 -8 14 3 13 12 58 21 99 9 41
20 89 24 105 5 17 21 84 36 150 15 66 37 165 50 220 24 100 76 329 91 395 4
19 8 37 9 40 10 35 85 356 110 470 13 58 37 164 53 235 16 72 48 213 71 315
23 102 46 199 52 215 5 17 20 82 33 145 13 63 33 151 45 195 11 44 30 121 40
170 27 124 67 297 101 440 15 66 36 154 45 195 44 196 59 256 68 267 9 13 213
153 222 153 2 0 29 16 60 35 88 57 362 189 460 223 141 48 282 85 370 97 96
14 333 17 414 6 90 -12 110 -17 231 -52 298 -87 614 -335 832 -654 90 -131 89
-115 12 -198 -140 -151 -214 -267 -301 -467 -18 -41 -28 -75 -62 -205 -6 -22
-15 -80 -21 -130 -29 -255 8 -533 105 -790 15 -38 31 -83 37 -100 39 -107 180
-355 299 -525 134 -191 436 -505 587 -609 34 -23 38 -22 22 7 -13 24 -65 159
-169 442 -35 96 -52 91 174 54 269 -44 375 -60 375 -58 0 1 -17 13 -37 25 -43
26 -245 177 -313 234 -131 109 -166 141 -286 260 -71 71 -150 154 -175 184
-24 30 -49 59 -55 65 -53 55 -199 295 -241 396 -77 186 -97 281 -96 450 0 165
22 261 95 420 189 410 760 829 1278 936 61 13 130 18 245 18 143 -1 181 -5
268 -31 18 -5 18 4 15 169 -3 148 -7 182 -26 233 -39 105 -119 179 -228 212
-56 17 -192 18 -2584 19 -2399 2 -2528 1 -2587 -16z"/>
</g>
</svg>
