<?xml version="1.0" standalone="no"?>
<!DOCTYPE svg PUBLIC "-//W3C//DTD SVG 20010904//EN"
 "http://www.w3.org/TR/2001/REC-SVG-20010904/DTD/svg10.dtd">
<svg version="1.0" xmlns="http://www.w3.org/2000/svg"
 width="700.000000pt" height="700.000000pt" viewBox="0 0 700.000000 700.000000"
 preserveAspectRatio="xMidYMid meet">
<metadata>
Created by potrace 1.11, written by Peter Selinger 2001-2013
</metadata>
<g transform="translate(0.000000,700.000000) scale(0.100000,-0.100000)"
fill="#000000" stroke="none">
<path d="M539 6955 c-2 -2 -40 -5 -83 -6 -168 -5 -302 -91 -375 -243 l-32 -65
3 -3143 3 -3143 27 -55 c31 -62 73 -112 135 -159 75 -57 100 -63 313 -69 292
-8 5845 -8 5990 0 125 7 168 13 178 23 17 17 -163 245 -383 485 -92 100 -380
386 -471 468 -275 246 -597 451 -849 539 -166 59 -241 74 -390 80 -229 8 -326
-13 -540 -117 -80 -40 -151 -84 -214 -135 -52 -41 -98 -72 -102 -68 -3 5 -21
51 -39 103 -79 228 -148 354 -257 467 -157 163 -369 262 -618 290 -347 39
-796 -52 -1326 -268 -215 -87 -788 -376 -856 -431 -12 -10 -17 -4 -14 15 2 13
61 281 65 297 2 8 36 155 76 325 39 171 73 315 74 320 1 6 6 26 10 45 4 19 41
178 82 353 79 339 163 706 170 747 3 14 7 33 10 42 3 9 7 25 9 35 2 10 9 41
15 68 6 28 13 58 15 69 13 60 70 306 92 391 28 112 26 103 48 205 8 41 32 143
51 225 20 83 37 157 39 165 2 8 10 45 19 81 8 37 17 78 20 90 2 13 21 94 41
179 20 85 38 166 41 180 3 14 11 50 19 80 8 30 16 66 19 80 3 14 19 86 36 160
18 74 34 144 37 155 6 28 7 33 23 93 9 34 23 60 40 73 34 27 210 149 215 149
2 0 50 28 107 62 148 88 447 231 585 278 144 50 373 107 468 116 106 10 391
11 465 1 36 -4 101 -17 145 -28 44 -11 91 -23 105 -25 54 -11 230 -87 323
-139 204 -115 388 -269 547 -455 30 -36 58 -67 61 -70 12 -10 117 -157 153
-213 26 -40 36 -66 32 -80 -3 -12 -29 -47 -57 -77 -28 -30 -68 -75 -88 -100
-20 -25 -39 -47 -42 -50 -13 -12 -99 -139 -122 -180 -93 -169 -136 -269 -173
-400 -15 -52 -28 -104 -29 -115 -2 -11 -6 -33 -9 -50 -21 -106 -28 -371 -13
-520 4 -44 21 -141 38 -215 36 -168 30 -144 79 -280 23 -63 46 -130 51 -147
15 -50 129 -267 212 -405 168 -279 294 -436 566 -709 162 -162 308 -289 331
-289 4 0 -5 33 -22 73 -76 188 -210 558 -205 570 6 17 35 16 177 -8 39 -6 215
-35 320 -51 52 -9 115 -18 140 -20 l45 -6 -74 52 c-82 57 -120 85 -278 209
-159 125 -240 197 -419 375 -293 294 -407 446 -544 729 -102 212 -139 366
-139 587 0 223 29 343 130 545 33 66 89 161 126 210 75 102 282 313 388 397
82 64 289 208 301 208 4 0 15 6 23 14 22 19 201 111 285 147 172 74 361 130
495 147 108 13 411 6 477 -12 34 -9 67 -16 74 -16 14 0 12 287 -2 396 -26 189
-173 338 -358 359 -59 7 -6034 17 -6041 10z"/>
</g>
</svg>
